<svg width="341" height="50" viewBox="0 0 341 50" fill="none" xmlns="http://www.w3.org/2000/svg">
<path d="M77.542 34.8012L71.0837 34.809L71.0788 30.7256L58.1622 30.7411L58.1573 26.6578L135.657 26.565L135.652 22.4816L58.1524 22.5744L58.1475 18.4911L71.0641 18.4756L71.0592 14.3923L77.5176 14.3846L77.5127 10.3012L58.1377 10.3244L58.1426 14.4078L45.2259 14.4232L45.2308 18.5066L32.3142 18.522L32.3166 20.5637L25.8583 20.5714L25.8607 22.6131L19.4024 22.6208L19.4073 26.7042L25.8656 26.6964L25.8681 28.7381L32.3264 28.7304L32.3288 30.772L45.2455 30.7566L45.2504 34.8399L58.167 34.8244L58.1719 38.9078L77.5469 38.8845L77.542 34.8012Z" fill="#FDF8F8"/>
<path d="M263.5 14.2918H269.958V18.3752H282.875V22.4585H205.375V26.5418H282.875V30.6252H269.958V34.7085H263.5V38.7918H282.875V34.7085H295.792V30.6252H308.708V28.5835H315.167V26.5418H321.625V22.4585H315.167V20.4168H308.708V18.3752H295.792V14.2918H282.875V10.2085H263.5V14.2918Z" fill="#FDF8F8"/>
</svg>
