<svg width="51" height="342" viewBox="0 0 51 342" fill="none" xmlns="http://www.w3.org/2000/svg">
<g clip-path="url(#clip0_59_109)">
<path d="M35.7647 263.509L35.7961 269.967L31.7128 269.987L31.7756 282.903L27.6923 282.923L27.3156 205.424L23.2323 205.444L23.609 282.943L19.5257 282.963L19.4629 270.046L15.3796 270.066L15.3482 263.608L11.265 263.628L11.3591 283.003L15.4424 282.983L15.5052 295.899L19.5885 295.879L19.6513 308.796L21.6929 308.786L21.7243 315.244L23.7659 315.234L23.7973 321.693L27.8806 321.673L27.8492 315.214L29.8909 315.205L29.8595 308.746L31.9011 308.736L31.8383 295.82L35.9216 295.8L35.8588 282.883L39.9421 282.864L39.848 263.489L35.7647 263.509Z" fill="#F9FAFB"/>
</g>
<g clip-path="url(#clip1_59_109)">
<path d="M14.5755 77.6266L14.5518 71.1683L18.6351 71.1533L18.5878 58.2368L22.6711 58.2218L22.955 135.721L27.0383 135.706L26.7544 58.2068L30.8377 58.1919L30.885 71.1085L34.9683 71.0935L34.992 77.5518L39.0753 77.5368L39.0043 58.162L34.921 58.1769L34.8737 45.2603L30.7904 45.2753L30.7431 32.3587L28.7014 32.3662L28.6778 25.9079L26.6361 25.9154L26.6125 19.4571L22.5292 19.4721L22.5528 25.9303L20.5112 25.9378L20.5348 32.3961L18.4932 32.4036L18.5405 45.3202L14.4572 45.3351L14.5045 58.2517L10.4212 58.2667L10.4922 77.6415L14.5755 77.6266Z" fill="#F9FAFB"/>
</g>
<defs>
<clipPath id="clip0_59_109">
<rect width="155" height="49" fill="white" transform="translate(49.6797 185.94) rotate(89.7215)"/>
</clipPath>
<clipPath id="clip1_59_109">
<rect width="155" height="49" fill="white" transform="translate(0.567383 155.178) rotate(-90.2099)"/>
</clipPath>
</defs>
</svg>
