<svg width="37" height="36" viewBox="0 0 37 36" fill="none" xmlns="http://www.w3.org/2000/svg">
<path d="M26.2034 17.9595L26.2022 19.4543L23.1212 19.4518L23.1188 22.4415L20.0379 22.4391L20.0524 4.5008L16.9714 4.49831L16.9569 22.4366L13.876 22.4341L13.8784 19.4444L10.7975 19.4419L10.7987 17.947L7.71776 17.9445L7.71414 22.4291L10.7951 22.4316L10.7927 25.4213L13.8736 25.4238L13.8712 28.4135L15.4116 28.4147L15.4104 29.9096L16.9509 29.9108L16.9497 31.4057L20.0306 31.4082L20.0318 29.9133L21.5723 29.9146L21.5735 28.4197L23.114 28.421L23.1164 25.4313L26.1973 25.4337L26.1997 22.444L29.2807 22.4465L29.2843 17.962L26.2034 17.9595Z" fill="black"/>
</svg>
