<svg width="299" height="100" viewBox="0 0 299 100" fill="none" xmlns="http://www.w3.org/2000/svg">
<g filter="url(#filter0_d_43_594)">
<rect width="287" height="88" rx="30" fill="#FF9F44" shape-rendering="crispEdges"/>
<path d="M7.5 53V32H28.5V53H22.5V35H13.5V53H7.5ZM34.5 53V50H31.5V41H34.5V38H49.5V41H52.5V50H49.5V53H34.5ZM37.5 50H46.5V41H37.5V50ZM76.5 50H79.5V56H73.5V53H61.5V56H55.5V50H58.5V47H61.5V38H76.5V50ZM64.5 50H70.5V41H64.5V50ZM88.5 53V41H82.5V38H100.5V41H94.5V53H88.5ZM103.5 53V38H121.5V41H124.5V44H121.5V47H124.5V50H121.5V53H103.5ZM109.5 44H118.5V41H109.5V44ZM109.5 50H118.5V47H109.5V50ZM130.5 53V50H127.5V41H130.5V38H145.5V41H148.5V47H133.5V50H145.5V53H130.5ZM133.5 44H142.5V41H133.5V44ZM172.5 41V50H169.5V53H157.5V56H151.5V38H157.5V41H160.5V44H157.5V50H166.5V41H160.5V38H169.5V41H172.5ZM196.5 50H199.5V56H193.5V53H181.5V56H175.5V50H178.5V47H181.5V38H196.5V50ZM184.5 50H190.5V41H184.5V50ZM205.5 47H208.5V50H205.5V53H199.5V38H205.5V47ZM220.5 38V53H214.5V44H211.5V41H214.5V38H220.5ZM208.5 44H211.5V47H208.5V44ZM232.5 53V41H226.5V38H244.5V41H238.5V53H232.5ZM247.5 53V38H253.5V44H265.5V47H268.5V50H265.5V53H247.5ZM253.5 50H262.5V47H253.5V50Z" fill="#121212"/>
</g>
<defs>
<filter id="filter0_d_43_594" x="0" y="0" width="299" height="100" filterUnits="userSpaceOnUse" color-interpolation-filters="sRGB">
<feFlood flood-opacity="0" result="BackgroundImageFix"/>
<feColorMatrix in="SourceAlpha" type="matrix" values="0 0 0 0 0 0 0 0 0 0 0 0 0 0 0 0 0 0 127 0" result="hardAlpha"/>
<feOffset dx="12" dy="12"/>
<feComposite in2="hardAlpha" operator="out"/>
<feColorMatrix type="matrix" values="0 0 0 0 0 0 0 0 0 0 0 0 0 0 0 0 0 0 1 0"/>
<feBlend mode="normal" in2="BackgroundImageFix" result="effect1_dropShadow_43_594"/>
<feBlend mode="normal" in="SourceGraphic" in2="effect1_dropShadow_43_594" result="shape"/>
</filter>
</defs>
</svg>
