<svg width="46" height="46" viewBox="0 0 46 46" fill="none" xmlns="http://www.w3.org/2000/svg">
<path d="M26.6509 21.1434V20.0306H27.7439V18.9178H28.8369V17.8049H29.93V16.6921H31.023V15.5793H32.116V14.4665H33.209V13.3537H34.3021V12.2409H35.3951V11.128H36.4881V10.0152H37.5811V16.6921H39.7672V5.56396H28.8369V7.7896H35.3951V8.90241H34.3021V10.0152H33.209V11.128H32.116V12.2409H31.023V13.3537H29.93V14.4665H28.8369V15.5793H27.7439V16.6921H26.6509V17.8049H25.5579V18.9178H24.4648V21.1434H26.6509Z" fill="#0E0D0D"/>
<path d="M18.6998 23.9477L18.6936 25.0605L17.6006 25.0544L17.5943 26.1672L16.5013 26.1611L16.4951 27.2739L15.4021 27.2678L15.3959 28.3806L14.3029 28.3745L14.2967 29.4873L13.2037 29.4812L13.1975 30.594L12.1045 30.5879L12.0983 31.7007L11.0052 31.6946L10.999 32.8074L9.90603 32.8013L9.89982 33.9141L8.80681 33.908L8.8006 35.0208L7.70759 35.0146L7.74486 28.3379L5.55885 28.3257L5.49673 39.4536L16.4268 39.5147L16.4392 37.2891L9.88118 37.2525L9.88739 36.1397L10.9804 36.1458L10.9866 35.033L12.0796 35.0391L12.0858 33.9263L13.1788 33.9324L13.185 32.8196L14.2781 32.8257L14.2843 31.7129L15.3773 31.719L15.3835 30.6062L16.4765 30.6123L16.4827 29.4995L17.5757 29.5056L17.5819 28.3928L18.6749 28.3989L18.6811 27.2861L19.7742 27.2922L19.7804 26.1794L20.8734 26.1855L20.8858 23.9599L18.6998 23.9477Z" fill="#0E0D0D"/>
</svg>
