<svg width="32" height="31" viewBox="0 0 32 31" fill="none" xmlns="http://www.w3.org/2000/svg">
<path d="M10.6663 15.5H11.9997V16.7917H19.9997V15.5H21.333V14.2083H22.6663V6.45833H21.333V5.16667H19.9997V3.875H11.9997V5.16667H10.6663V6.45833H9.33301V14.2083H10.6663V15.5ZM11.9997 9.04167H13.333V7.75H14.6663V6.45833H17.333V7.75H18.6663V9.04167H19.9997V11.625H18.6663V12.9167H17.333V14.2083H14.6663V12.9167H13.333V11.625H11.9997V9.04167Z" fill="black"/>
<path d="M25.333 20.6667V19.375H23.9997V18.0833H7.99967V19.375H6.66634V20.6667H5.33301V27.125H7.99967V23.25H9.33301V21.9583H10.6663V20.6667H21.333V21.9583H22.6663V23.25H23.9997V27.125H26.6663V20.6667H25.333Z" fill="black"/>
</svg>
