<svg width="41" height="43" viewBox="0 0 41 43" fill="none" xmlns="http://www.w3.org/2000/svg">
<path d="M22.2087 3.58331H18.792V8.95831H22.2087V3.58331Z" fill="#C98A54"/>
<path d="M10.2507 3.58331H6.83398V16.125H10.2507V3.58331Z" fill="#C98A54"/>
<path d="M22.2083 14.3333V12.5416H18.7917V14.3333H15.375V17.9166H18.7917V19.7083H22.2083V17.9166H25.625V14.3333H22.2083Z" fill="#C98A54"/>
<path d="M10.2503 21.5V19.7083H6.83366V21.5H3.41699V25.0833H6.83366V26.875H10.2503V25.0833H13.667V21.5H10.2503Z" fill="#C98A54"/>
<path d="M22.2087 23.2916H18.792V39.4166H22.2087V23.2916Z" fill="#C98A54"/>
<path d="M10.2507 30.4583H6.83398V39.4166H10.2507V30.4583Z" fill="#C98A54"/>
<path d="M34.1667 34.0416H30.75V39.4166H34.1667V34.0416Z" fill="#C98A54"/>
<path d="M34.1667 3.58331H30.75V19.7083H34.1667V3.58331Z" fill="#C98A54"/>
<path d="M34.1673 25.0833V23.2916H30.7507V25.0833H27.334V28.6666H30.7507V30.4583H34.1673V28.6666H37.584V25.0833H34.1673Z" fill="#C98A54"/>
</svg>
